<?xml version="1.0" encoding="utf-8"?>
<!-- Generator: Adobe Illustrator 22.0.1, SVG Export Plug-In . SVG Version: 6.00 Build 0)  -->
<svg version="1.1" id="Layer_1" xmlns="http://www.w3.org/2000/svg" xmlns:xlink="http://www.w3.org/1999/xlink" x="0px" y="0px"
	 viewBox="0 0 1624 228" style="enable-background:new 0 0 1624 228;" xml:space="preserve">
<style type="text/css">
	.st0{display:none;fill:#EC5A56;}
	.st1{fill:#FFFFFF;}
	.st2{fill:#61B94C;}
</style>
<rect y="-12" class="st0" width="792" height="616.2"/>
<image style="display:none;overflow:visible;enable-background:new    ;" width="1658" height="1179" xlink:href="544E38BF69CA399E.png"  transform="matrix(0.2396 0 0 0.2396 197.3773 141.2402)">
</image>
<path class="st1" d="M184,135v44.7l8.2,24.6l13.5,4.9l-3.7-33.5l19.3-30.1l12.2-1.4l13.5-30.7l-25.8-11l-0.2-0.1l-3.2-9.4
	l-23.6-16.8L177,75.7l-4.4,3.5l-8.2-6.2l-0.1-6.3l-4.8-2.5l2.5-8l-5.1-2.4l-8.2,4.2l-7.8-6.8l4.5-9.8l-34.8-14.5h-1l17.4,32.2
	c0,0,0.7,1.1,1.9,1.5l24.6,11.1l16,17l-8.7,21l11,20.9L184,135z"/>
<path class="st2" d="M363,120.9c0,0-1-1.8-6.1-3.5l-58.7-21.9c0,0-8.5-4.3-13.8,3.5c0,0-2,3.8-0.5,7c0,0,1.7,4.5,6.1,5.8l42.1,15.8
	l-42.1,15.8c-4.4,1.3-6.1,5.8-6.1,5.8c-1.4,3.2,0.5,7,0.5,7c5.3,7.7,13.8,3.5,13.8,3.5l58.7-21.9c5.1-1.7,6.1-3.5,6.1-3.5
	c2-2.8,1.6-6.7,1.6-6.7S365,123.7,363,120.9z"/>
<path class="st2" d="M108.8,143.3l-42.1-15.8l42.1-15.8c4.4-1.3,6.1-5.8,6.1-5.8c1.4-3.2-0.5-7-0.5-7c-5.3-7.7-13.8-3.5-13.8-3.5
	l-58.7,21.9c-5.1,1.7-6.1,3.5-6.1,3.5c-2,2.8-1.6,6.7-1.6,6.7s-0.4,3.9,1.6,6.7c0,0,1,1.8,6.1,3.5l58.7,21.9c0,0,8.5,4.3,13.8-3.4
	c0,0,2-3.8,0.5-7C114.9,149.1,113.2,144.6,108.8,143.3z"/>
<path class="st1" d="M474.3,107.7L460,93.3l-0.1-0.1h-54.3H403c0,0-1.8,0-1.8,1.5v11.8v0.2v0.5v0.2v52.1c0,0,0.2,3,3.9,3h51.7h0.6
	c0,0,2.2-0.3,3.4-1.2l14.2-14.2c0,0,1.2-1,1.2-2.1v-32.7C476.1,112.2,475.9,109.7,474.3,107.7z M467.6,143l-11.8,11.8h-46.3v-47.4
	v-0.2v-0.7h0l0-5.6h47l9.9,10c0,0,1.1,1.2,1.1,3.4L467.6,143L467.6,143z"/>
<path class="st1" d="M512.5,93.2h45.8h1.5h1.1c0,0,0.7-0.2,1.5,0.8l6.6,6.5c0,0,1.6,1.2,1.1,2.3l-4.3,4.5c0,0-0.9,0.9-2.5-0.6
	l-5.8-5.8h-41.3v22.6h41.1c0,0,1.8,0.4,2.4,2v3.8c0,0-0.6,1.8-2.6,1.8h-41v23.7h42.1l5.8-6.1c0,0,1.2-1.6,2.7-0.1l3.3,3.2
	c0,0,1.5,1.1-0.5,3.2l-6.5,6.3c0,0-1,1.1-3.5,1.1H511c0,0-2.8-0.1-3.2-2.5v-2.3v-48.3V95.9v-1.1c0,0,0.3-1.7,2.7-1.7L512.5,93.2z"/>
<path class="st1" d="M608.8,92.5h34.3h1c0,0,1.6-0.2,2.6,0.8l5.1,4.9l1.9,2c0,0,2.2,2,0.8,3.4l-3.7,3.8c0,0-1.3,0.9-2.5-0.6
	l-5.9-6.5h-31.1h-0.5l-3.6,5.4l-0.1,0.2l49.1,40.8c0,0,2.1,1.3,0,4.1l-8.5,10.6c0,0-1.1,1.3-3.7,1.3h-38.1c0,0-1.3,0-1.8-0.6
	l-8.5-7.8c0,0-0.7-0.9,0-1.9l3.4-3.6c0,0,1.1-1.3,2-0.6l6.6,6.1l0.7,0.8H642h0.4l3.5-4.3c0,0,0.3-1.1-0.7-1.9l-48.9-40.1
	c0,0-1.3-1.6,0.1-3.4l6.7-8.4l2.3-2.8C605.4,93.9,607.5,92.3,608.8,92.5z"/>
<path class="st1" d="M748.4,112.6l-18.3-18.7c0,0-1.3-1.4-2.9-1.4h-10.4h-1.5h-10.4c-1.5,0-2.9,1.4-2.9,1.4l-18.3,18.7
	c-0.9,0.9-0.9,1.7-0.9,1.7v45.4c0,3,3.1,2.8,3.1,2.8h2.9c2.1,0,2.6-2.7,2.6-2.7v-20.1v0h23.3h2.8h23.3v0v20.1c0,0,0.5,2.7,2.6,2.7
	h2.9c0,0,3.1,0.2,3.1-2.8v-45.4C749.2,114.3,749.3,113.5,748.4,112.6z M740.7,133h-23.3h-2.8h-23.3v-17.5l14.9-15.3h9h1.5h9
	l14.9,15.3L740.7,133L740.7,133z"/>
<path class="st1" d="M784.6,162.4h1.9c0,0,3.3,0,3.3-1.9v-28.7h41.3c0,0,1.5-0.3,1.5-1.4v-5v-0.5c0,0-0.4-1.5-1.5-1.5h-41.4v-22.6
	h38.6l3.4,3.4l1.3,1.4c0,0,1.3,1,2.2,0.1l4.1-4.2c0,0,0.7-0.7,0-1.5l-7.3-6.9h-49.1c0,0-1.7,0.2-1.7,1.6v65.7
	C781.4,160.5,781.6,162.4,784.6,162.4z"/>
<path class="st1" d="M896.4,100.9c0,0,1.6-0.5,1.6-1.6v-5.3c0,0-0.6-0.8-1.7-0.8h-16.2h-1H863c-1.1,0-1.7,0.8-1.7,0.8v5.3
	c0,1.1,1.6,1.6,1.6,1.6h12.6v53.9h-11.9c-1.8,0-2.4,1.5-2.4,1.5v4.1c0,1.3,2.2,2,2.2,2h0.4h15.1h0.1h1h0.1h15.1h0.4
	c0,0,2.2-0.6,2.2-2v-4.1c0,0-0.6-1.5-2.4-1.5h-11.9v-53.9H896.4z"/>
<path class="st1" d="M1003.9,108.5l-15.6-15.2c-0.9-0.9-2.7-0.8-2.7-0.8h-2.6h-17.4h-2.2h-17.4h-2.6c0,0-1.8,0-2.7,0.8l-15.6,15.2
	c0,0-0.4,0.5-0.4,1.4v9.1v25.9c0,0,0.3,1.3,1.2,2.3l14.4,14.2c0,0,0.7,1,2.3,1h21.1h2.2h21.1c1.6,0,2.3-1,2.3-1l14.4-14.2
	c0.9-1,1.2-2.3,1.2-2.3V119v-9.1C1004.4,109,1003.9,108.5,1003.9,108.5z M995.9,112.3v31.4l-11.1,11.1h-19.3h-2.2H944l-11.1-11.1
	v-31.4V112l12.1-11.9h18.3h2.2h18.3l12.1,11.9L995.9,112.3L995.9,112.3z"/>
<path class="st1" d="M1055.8,147.3V96.9c0,0-1.5-2.9-4.7-2.9h-12.9c0,0-3.9,1-3.9,2.6v63.3c0,0-0.5,3.8,4.6,3.8h53.9h2.3
	c0,0,2.4,0.1,4.1-0.8l12.4-9.3l0.6-0.6c0,0,1.6-1.3-0.5-3.1l-10.9-8.5l-0.8-0.6c0,0-1.6-1.2-3.8,0.4l-8.5,6.2L1055.8,147.3z"/>
<path class="st1" d="M1222.5,112.9l-21.3-17c0,0-3.2-2.5-6.8-2.5h-14.5h-0.4h-14.5c-3.6,0-6.8,2.5-6.8,2.5l-21.3,17
	c-1.6,1.3-1.8,3.2-1.8,3.2v1.6v43.9c0,1.4,2.5,1.9,2.5,1.9h16.8c1.9,0,2.4-2,2.4-2v-14.7h22.8h0.4h22.8v14.7c0,0,0.5,2,2.4,2h16.8
	c0,0,2.5-0.5,2.5-1.9v-43.9v-1.6C1224.3,116.1,1224.1,114.2,1222.5,112.9z M1202.6,132.2h-22.8h-0.4h-22.8v-11.6l14-11.3h8.7h0.4
	h8.7l14.1,11.3V132.2z"/>
<path class="st1" d="M1443.1,112.9l-21.3-17c0,0-3.2-2.5-6.8-2.5h-14.5h-0.4h-14.5c-3.6,0-6.8,2.5-6.8,2.5l-21.3,17
	c-1.6,1.3-1.8,3.2-1.8,3.2v1.6v43.9c0,1.4,2.5,1.9,2.5,1.9h16.8c2,0,2.4-2,2.4-2v-14.7h22.8h0.4h22.8v14.7c0,0,0.5,2,2.4,2h16.8
	c0,0,2.5-0.5,2.5-1.9v-43.9v-1.6C1444.9,116.1,1444.7,114.2,1443.1,112.9z M1423.2,132.2h-22.8h-0.4h-22.8v-11.6l14.1-11.3h8.7h0.4
	h8.7l14,11.3L1423.2,132.2L1423.2,132.2z"/>
<path class="st1" d="M1341.2,103.7l-9.4-7.4c0,0-1.5-1.5-4.1-1.5h-32h-4.7h-0.9h-0.3h-0.9h-4.7h-32c-2.6,0-4.1,1.5-4.1,1.5l-9.4,7.4
	c-1.9,1.5-0.5,2.6-0.5,2.6l0.7,0.5l12.2,10.1c1.9,1.5,3.7-0.2,3.7-0.2l7.1-6l17.2,0l-0.1,50.8c0,1.4,2.2,2,2.2,2h7.6h2.1h7.6
	c0,0,2.2-0.6,2.2-2l-0.1-50.8l17.2,0l7.1,6c0,0,1.9,1.7,3.7,0.2l12.2-10.1l0.7-0.5C1341.7,106.3,1343.1,105.2,1341.2,103.7z"/>
<path class="st1" d="M1587.4,100.1l-11.4-8.5c0,0-1.1-1-2.5,0l-40.7,34l-40.7-34c-1.4-1-2.5,0-2.5,0l-11.4,8.5c-1.1,1.1-1,1.9-1,1.9
	v2.6v56.5c0,2.2,2.4,2.5,2.4,2.5h15.5c3.2,0,3.2-2.5,3.2-2.5v-40.5l32.9,28.3c0.6,0.6,1.2,0.5,1.2,0.5h0h0.9h0c0,0,0.6,0.1,1.2-0.5
	l32.9-28.3V161c0,0,0,2.5,3.2,2.5h15.5c0,0,2.4-0.2,2.4-2.5v-56.5V102C1588.4,102,1588.5,101.2,1587.4,100.1z"/>
</svg>
